<svg width="37" height="36" viewBox="0 0 37 36" fill="none" xmlns="http://www.w3.org/2000/svg">
<path d="M35.3747 31.1524C34.8634 32.3519 34.0535 33.4048 33.0198 34.2137C32.2643 34.7992 31.4047 35.2405 30.485 35.5151C29.0568 35.8552 27.5887 36.0044 26.1202 35.9588H9.93607C8.47248 36.0054 7.00923 35.8562 5.58631 35.5151C4.65552 35.2453 3.78515 34.8036 3.02144 34.2137C2.01811 33.4285 1.22505 32.413 0.711569 31.2559C0.15796 29.5978 -0.0760559 27.8523 0.021606 26.1093V10.1077C-0.0581793 8.39831 0.180763 6.68901 0.726567 5.06465C1.2316 3.89844 2.01969 2.87254 3.02144 2.07728C3.78067 1.48898 4.64579 1.04742 5.57131 0.775856C6.99423 0.434798 8.45748 0.285549 9.92108 0.332187H26.1652C27.6337 0.286565 29.1018 0.435791 30.5299 0.775856C31.4338 1.05546 32.2779 1.49661 33.0198 2.07728C34.0232 2.86248 34.8162 3.87798 35.3297 5.03508C35.8741 6.66973 36.108 8.38937 36.0197 10.1077V26.1093C36.1188 27.8151 35.9002 29.5243 35.3747 31.1524Z" fill="url(#paint0_linear_292_972)"/>
<path d="M20.661 20.77C20.3066 20.4485 19.8904 20.2004 19.4369 20.0403C18.9835 19.8803 18.502 19.8116 18.0211 19.8383C17.5453 19.8156 17.0695 19.8862 16.6215 20.0462C16.1735 20.2061 15.7621 20.4521 15.4113 20.77C15.1322 21.0423 14.9619 21.4045 14.9313 21.7904C14.8366 22.6852 14.8366 23.5873 14.9313 24.482C15.0213 25.5764 15.2013 27.0257 15.4413 28.5046C15.5355 29.1884 15.6758 29.8653 15.8613 30.5307C16.0278 30.934 16.3225 31.2731 16.7011 31.4971C17.0798 31.7211 17.522 31.8179 17.9612 31.773C18.4025 31.8188 18.8469 31.7226 19.2282 31.4987C19.6094 31.2748 19.9068 30.9352 20.0761 30.5307C20.2616 29.8653 20.4018 29.1884 20.496 28.5046C20.721 27.0257 20.901 25.5468 20.991 24.482C21.0857 23.5873 21.0857 22.6852 20.991 21.7904C21.0022 21.4232 20.8857 21.0631 20.661 20.77ZM15.1113 15.7566C15.1113 16.3415 15.2873 16.9134 15.6169 17.3998C15.9465 17.8862 16.4151 18.2653 16.9632 18.4892C17.5113 18.7131 18.1145 18.7716 18.6964 18.6575C19.2783 18.5434 19.8128 18.2617 20.2324 17.848C20.6519 17.4344 20.9376 16.9073 21.0533 16.3336C21.1692 15.7598 21.1097 15.1651 20.8826 14.6247C20.6556 14.0842 20.2711 13.6222 19.7777 13.2972C19.2845 12.9722 18.7044 12.7988 18.1111 12.7988C17.3155 12.7988 16.5525 13.1104 15.99 13.6651C15.4274 14.2198 15.1113 14.9721 15.1113 15.7566ZM18.0211 4.26553C15.0314 4.27908 12.1424 5.33312 9.86379 7.24178C7.58518 9.15043 6.0633 11.7911 5.56654 14.6981C5.06977 17.6051 5.63003 20.5916 7.14851 23.1311C8.66698 25.6706 11.0461 27.5998 13.8664 28.5786C13.8947 28.586 13.9246 28.5865 13.9532 28.58C13.9818 28.5735 14.0084 28.5601 14.0305 28.5412C14.0527 28.5222 14.0699 28.4982 14.0804 28.4712C14.0911 28.4442 14.0948 28.4151 14.0914 28.3863C14.0164 27.9574 13.9564 27.5286 13.8964 27.1145C13.8904 27.0399 13.8634 26.9685 13.8183 26.9084C13.7733 26.8482 13.712 26.8018 13.6414 26.7743C11.3181 25.7574 9.42048 23.9831 8.26745 21.7495C7.11441 19.5158 6.7762 16.9589 7.30962 14.5084C7.84305 12.0579 9.21561 9.86305 11.1968 8.29264C13.1778 6.72223 15.6467 5.87194 18.1887 5.88464C20.7306 5.89735 23.1906 6.77226 25.1555 8.36238C27.1203 9.95251 28.4702 12.161 28.9785 14.6167C29.4867 17.0724 29.1223 19.6258 27.9463 21.8478C26.7703 24.0698 24.8546 25.8251 22.521 26.8187C22.4504 26.8462 22.3891 26.8926 22.344 26.9527C22.299 27.0129 22.2719 27.0843 22.266 27.1588C22.266 27.5729 22.1459 28.0018 22.0709 28.4307C22.0675 28.4594 22.0712 28.4886 22.0819 28.5156C22.0925 28.5426 22.1096 28.5666 22.1319 28.5855C22.154 28.6045 22.1805 28.6178 22.2092 28.6243C22.2377 28.6309 22.2676 28.6304 22.296 28.6229C25.1593 27.6645 27.5815 25.7294 29.1262 23.1662C30.6707 20.6029 31.2361 17.5801 30.7205 14.6422C30.2049 11.7043 28.6422 9.04458 26.3139 7.14211C23.9856 5.23963 21.0447 4.21952 18.0211 4.26553ZM17.7962 10.0036C19.1961 9.94937 20.5794 10.3184 21.7606 11.0613C22.9416 11.8042 23.8642 12.8854 24.4045 14.1599C24.9447 15.4344 25.0768 16.8414 24.783 18.192C24.4893 19.5427 23.7837 20.7725 22.761 21.7165C22.707 21.7713 22.6646 21.8361 22.6363 21.9072C22.6079 21.9783 22.5943 22.0542 22.596 22.1306C22.6283 22.623 22.6283 23.117 22.596 23.6095C22.597 23.6401 22.606 23.67 22.6222 23.6962C22.6384 23.7224 22.6612 23.744 22.6884 23.7589C22.7156 23.7738 22.7463 23.7815 22.7774 23.7812C22.8085 23.7809 22.839 23.7727 22.8659 23.7574C24.3692 22.7487 25.505 21.2915 26.1067 19.5996C26.7083 17.9078 26.7442 16.0703 26.209 14.3568C25.6737 12.6434 24.5956 11.1442 23.1328 10.0793C21.67 9.01433 19.8995 8.43969 18.0812 8.43969C16.2628 8.43969 14.4924 9.01433 13.0296 10.0793C11.5668 11.1442 10.4886 12.6434 9.95339 14.3568C9.41817 16.0703 9.45402 17.9078 10.0557 19.5996C10.6573 21.2915 11.7932 22.7487 13.2964 23.7574C13.3221 23.774 13.3521 23.7832 13.3829 23.7839C13.4136 23.7847 13.444 23.7769 13.4706 23.7615C13.497 23.7461 13.5187 23.7238 13.533 23.6969C13.5473 23.67 13.5537 23.6397 13.5514 23.6095C13.5514 23.1067 13.5514 22.6482 13.5514 22.1306C13.5591 22.0536 13.5483 21.9759 13.5195 21.9039C13.4909 21.8319 13.4452 21.7677 13.3864 21.7165C12.4007 20.796 11.713 19.6088 11.4097 18.304C11.1065 16.9992 11.2013 15.6351 11.6822 14.3833C12.1631 13.1315 13.0087 12.0478 14.1125 11.2685C15.2164 10.4893 16.5293 10.0492 17.8862 10.0036H17.7962Z" fill="white"/>
<defs>
<linearGradient id="paint0_linear_292_972" x1="18.0507" y1="0.332187" x2="18.0507" y2="35.8848" gradientUnits="userSpaceOnUse">
<stop stop-color="#F452FF"/>
<stop offset="1" stop-color="#832BC1"/>
</linearGradient>
</defs>
</svg>
