<svg width="38" height="34" viewBox="0 0 38 34" fill="none" xmlns="http://www.w3.org/2000/svg">
<path d="M17.0271 11.5476V17.047V19.2451V24.7444H21.6487V19.2451V17.047V11.5476H17.0271Z" fill="#FAB908"/>
<path d="M3.1626 19.1764C4.43881 19.1764 5.47338 18.1609 5.47338 16.9082C5.47338 15.6555 4.43881 14.64 3.1626 14.64C1.88638 14.64 0.851807 15.6555 0.851807 16.9082C0.851807 18.1609 1.88638 19.1764 3.1626 19.1764Z" fill="#0066D9"/>
<path d="M3.1626 21.651C4.43881 21.651 5.47338 20.6355 5.47338 19.3828C5.47338 18.1301 4.43881 17.1146 3.1626 17.1146C1.88638 17.1146 0.851807 18.1301 0.851807 19.3828C0.851807 20.6355 1.88638 21.651 3.1626 21.651Z" fill="#0066D9"/>
<path d="M5.47338 16.9086H0.851807V19.383H5.47338V16.9086Z" fill="#0066D9"/>
<path d="M35.5134 21.651C36.7897 21.651 37.8242 20.6355 37.8242 19.3828C37.8242 18.1301 36.7897 17.1146 35.5134 17.1146C34.2372 17.1146 33.2026 18.1301 33.2026 19.3828C33.2026 20.6355 34.2372 21.651 35.5134 21.651Z" fill="#4285F4"/>
<path d="M35.5134 19.1764C36.7897 19.1764 37.8242 18.1609 37.8242 16.9082C37.8242 15.6555 36.7897 14.64 35.5134 14.64C34.2372 14.64 33.2026 15.6555 33.2026 16.9082C33.2026 18.1609 34.2372 19.1764 35.5134 19.1764Z" fill="#4285F4"/>
<path d="M33.2026 19.3832H37.8242V16.9088H33.2026V19.3832Z" fill="#4285F4"/>
<path d="M11.1452 26.6C12.4214 26.6 13.456 25.5845 13.456 24.3318C13.456 23.0791 12.4214 22.0636 11.1452 22.0636C9.86904 22.0636 8.83447 23.0791 8.83447 24.3318C8.83447 25.5845 9.86904 26.6 11.1452 26.6Z" fill="#EA4335"/>
<path d="M11.1452 29.0746C12.4214 29.0746 13.456 28.0591 13.456 26.8064C13.456 25.5537 12.4214 24.5381 11.1452 24.5381C9.86904 24.5381 8.83447 25.5537 8.83447 26.8064C8.83447 28.0591 9.86904 29.0746 11.1452 29.0746Z" fill="#EA4335"/>
<path d="M13.456 24.3322H8.83447V26.8066H13.456V24.3322Z" fill="#EA4335"/>
<path d="M11.1452 11.7534C12.4214 11.7534 13.456 10.7379 13.456 9.48524C13.456 8.23255 12.4214 7.21704 11.1452 7.21704C9.86904 7.21704 8.83447 8.23255 8.83447 9.48524C8.83447 10.7379 9.86904 11.7534 11.1452 11.7534Z" fill="#EA4335"/>
<path d="M11.1452 19.7949C12.4214 19.7949 13.456 18.7794 13.456 17.5267C13.456 16.274 12.4214 15.2585 11.1452 15.2585C9.86904 15.2585 8.83447 16.274 8.83447 17.5267C8.83447 18.7794 9.86904 19.7949 11.1452 19.7949Z" fill="#EA4335"/>
<path d="M13.456 9.48499H8.83447V17.5784H13.456V9.48499Z" fill="#EA4335"/>
<path d="M27.531 14.228C28.8072 14.228 29.8417 13.2125 29.8417 11.9598C29.8417 10.7071 28.8072 9.69159 27.531 9.69159C26.2548 9.69159 25.2202 10.7071 25.2202 11.9598C25.2202 13.2125 26.2548 14.228 27.531 14.228Z" fill="#34A853"/>
<path d="M27.531 11.7534C28.8072 11.7534 29.8417 10.7379 29.8417 9.48524C29.8417 8.23255 28.8072 7.21704 27.531 7.21704C26.2548 7.21704 25.2202 8.23255 25.2202 9.48524C25.2202 10.7379 26.2548 11.7534 27.531 11.7534Z" fill="#34A853"/>
<path d="M25.22 11.9595H29.8416V9.48511H25.22V11.9595Z" fill="#34A853"/>
<path d="M19.3379 7.01095C20.6141 7.01095 21.6487 5.99545 21.6487 4.74275C21.6487 3.49006 20.6141 2.47455 19.3379 2.47455C18.0617 2.47455 17.0271 3.49006 17.0271 4.74275C17.0271 5.99545 18.0617 7.01095 19.3379 7.01095Z" fill="#FAB908"/>
<path d="M19.3379 4.5364C20.6141 4.5364 21.6487 3.52089 21.6487 2.2682C21.6487 1.01551 20.6141 0 19.3379 0C18.0617 0 17.0271 1.01551 17.0271 2.2682C17.0271 3.52089 18.0617 4.5364 19.3379 4.5364Z" fill="#FAB908"/>
<path d="M17.0273 4.74254H21.649V2.26813H17.0273V4.74254Z" fill="#FAB908"/>
<path d="M19.3379 33.817C20.6141 33.817 21.6487 32.8015 21.6487 31.5488C21.6487 30.2961 20.6141 29.2806 19.3379 29.2806C18.0617 29.2806 17.0271 30.2961 17.0271 31.5488C17.0271 32.8015 18.0617 33.817 19.3379 33.817Z" fill="#FAB908"/>
<path d="M27.531 29.0746C28.8072 29.0746 29.8417 28.0591 29.8417 26.8064C29.8417 25.5537 28.8072 24.5381 27.531 24.5381C26.2548 24.5381 25.2202 25.5537 25.2202 26.8064C25.2202 28.0591 26.2548 29.0746 27.531 29.0746Z" fill="#34A853"/>
<path d="M27.531 21.0325C28.8072 21.0325 29.8417 20.017 29.8417 18.7643C29.8417 17.5116 28.8072 16.4961 27.531 16.4961C26.2548 16.4961 25.2202 17.5116 25.2202 18.7643C25.2202 20.017 26.2548 21.0325 27.531 21.0325Z" fill="#34A853"/>
<path d="M25.22 26.8062H29.8416V18.7643H25.22V26.8062Z" fill="#34A853"/>
<path d="M19.3379 13.8155C20.6141 13.8155 21.6487 12.7999 21.6487 11.5473C21.6487 10.2946 20.6141 9.27905 19.3379 9.27905C18.0617 9.27905 17.0271 10.2946 17.0271 11.5473C17.0271 12.7999 18.0617 13.8155 19.3379 13.8155Z" fill="#FAB908"/>
<path d="M19.3379 27.0125C20.6141 27.0125 21.6487 25.997 21.6487 24.7443C21.6487 23.4916 20.6141 22.4761 19.3379 22.4761C18.0617 22.4761 17.0271 23.4916 17.0271 24.7443C17.0271 25.997 18.0617 27.0125 19.3379 27.0125Z" fill="#FAB908"/>
</svg>
