<svg width="36" height="36" viewBox="0 0 36 36" fill="none" xmlns="http://www.w3.org/2000/svg">
<path d="M17.7474 0C14.2373 0 10.806 1.03186 7.88749 2.96508C4.96894 4.89831 2.69421 7.64608 1.35095 10.8609C0.00768936 14.0758 -0.343768 17.6133 0.34102 21.0261C1.02581 24.439 2.71608 27.5739 5.1981 30.0344C7.68012 32.495 10.8424 34.1706 14.2851 34.8495C17.7277 35.5283 21.2961 35.1799 24.5391 33.8483C27.782 32.5167 30.5537 30.2616 32.5038 27.3683C34.454 24.4751 35.4948 21.0735 35.4948 17.5938C35.4948 12.9276 33.625 8.45257 30.2967 5.1531C26.9684 1.85362 22.4543 0 17.7474 0ZM25.8917 25.3727C25.8161 25.497 25.7164 25.6052 25.5984 25.691C25.4803 25.7768 25.3462 25.8384 25.2039 25.8724C25.0615 25.9064 24.9138 25.912 24.7693 25.8888C24.6248 25.8657 24.4863 25.8144 24.362 25.7377C20.1978 23.2103 14.9571 22.6486 8.78165 24.0387C8.64117 24.072 8.49543 24.0772 8.35289 24.0542C8.21036 24.0311 8.07385 23.9802 7.95131 23.9045C7.82877 23.8287 7.72262 23.7296 7.63904 23.6128C7.55545 23.4961 7.49609 23.364 7.4644 23.2243C7.43072 23.0842 7.42527 22.9388 7.44835 22.7966C7.47143 22.6543 7.52259 22.518 7.5989 22.3954C7.67521 22.2728 7.77517 22.1663 7.89306 22.0821C8.01095 21.9978 8.14445 21.9375 8.28591 21.9045C15.0421 20.3739 20.8493 21.0339 25.5234 23.8702C25.7728 24.0214 25.9516 24.2644 26.0206 24.546C26.0897 24.8276 26.0433 25.1249 25.8917 25.3727ZM28.0588 20.5846C27.8608 20.8864 27.5535 21.1013 27.2003 21.1849C26.8471 21.2685 26.4749 21.2145 26.1608 21.0339C20.7753 18.0557 14.4177 17.3184 8.4842 18.9839C8.29957 19.0859 8.09424 19.1457 7.88327 19.1588C7.6723 19.1719 7.46105 19.138 7.26499 19.0597C7.06894 18.9814 6.89306 18.8605 6.75026 18.706C6.60746 18.5515 6.50135 18.3673 6.43971 18.1668C6.37808 17.9664 6.36249 17.7548 6.39408 17.5476C6.42567 17.3404 6.50364 17.1428 6.62227 16.9694C6.7409 16.7959 6.89719 16.651 7.07968 16.5452C7.26216 16.4395 7.46621 16.3755 7.67686 16.3581C10.9887 15.413 14.4577 15.1336 17.88 15.5363C21.3023 15.9389 24.6089 17.0156 27.6055 18.703C27.91 18.8993 28.1268 19.2039 28.2111 19.5541C28.2955 19.9042 28.2409 20.2731 28.0588 20.5846ZM28.2429 15.5999C22.5773 12.23 13.1016 11.9211 7.63437 13.5639C7.21364 13.6905 6.75941 13.6463 6.37159 13.4409C5.98378 13.2355 5.69416 12.8858 5.56643 12.4687C5.43871 12.0516 5.48336 11.6013 5.69054 11.2168C5.89773 10.8324 6.25049 10.5453 6.67122 10.4187C12.9458 8.53712 23.3563 8.90219 29.9426 12.7636C30.2812 13.0038 30.5162 13.3616 30.6008 13.7657C30.6854 14.1699 30.6134 14.5908 30.3992 14.9448C30.1849 15.2987 29.8442 15.5598 29.4446 15.6759C29.0451 15.7921 28.616 15.755 28.2429 15.5718V15.5999Z" fill="#1DD75F"/>
</svg>
